PathFileType	4	(X/Y/Z)	./resultDataOpenSim/trcMotMarkerGrf/sub06/qtm-01-01.trc
DataRate	CameraRate	NumFrames	NumMarkers	Units	OrigDataRate	OrigDataStartFrame	OrigNumFrames
250.000000	250.000000	7	24	m	250.000000	355	472
Frame#	Time	L.Toe.Tip			R.Toe.Tip			L.Ankle.Lat			R.Ankle.Lat			L.Ankle.Med			R.Ankle.Med			L.Heel			R.Heel			L.Knee.Lat			R.Knee.Lat			L.Knee.Med			R.Knee.Med			L.Thigh.Upper			R.Thigh.Upper			L.ASIS			R.ASIS			V.Sacral			L.Acromium			R.Acromium			C7			L.Elbow			R.Elbow			L.Wrist.Lat			R.Wrist.Lat
		X1	Y1	Z1	X2	Y2	Z2	X3	Y3	Z3	X4	Y4	Z4	X5	Y5	Z5	X6	Y6	Z6	X7	Y7	Z7	X8	Y8	Z8	X9	Y9	Z9	X10	Y10	Z10	X11	Y11	Z11	X12	Y12	Z12	X13	Y13	Z13	X14	Y14	Z14	X15	Y15	Z15	X16	Y16	Z16	X17	Y17	Z17	X18	Y18	Z18	X19	Y19	Z19	X20	Y20	Z20	X21	Y21	Z21	X22	Y22	Z22	X23	Y23	Z23	X24	Y24	Z24

355	1.416	1.4631989	0.131035	-0.061022617	0.84964848	0.034992828	0.10643898	1.3370644	0.10546921	-0.060523662	0.71970378	0.081961791	0.12567392	1.3466893	0.12223253	0.024060942	0.74983944	0.1028322	0.041292915	1.2944862	0.045317604	-0.0041171207	0.66612161	0.073869058	0.062343787	1.2172831	0.45017563	-0.058243931	0.89004631	0.43654395	0.16943804	1.2053818	0.43796616	0.066595698	0.86988223	0.43903711	0.037842168	1.0513209	0.80017823	-0.10565804	0.97080532	0.79195251	0.23118518	1.1087516	0.8516661	-0.049284419	1.0786016	0.84538353	0.19826415	0.90628705	0.91771453	0.052660686	1.0061755	1.3289881	-0.1128507	1.0178442	1.3222542	0.24480296	0.93695767	1.3603859	0.069412799	0.88848421	1.0485122	-0.18737591	1.0615073	1.0094181	0.3422572	0.95472429	0.8201868	-0.24753941	1.3045223	0.99602119	0.27861374
356	1.42	1.4739526	0.13260135	-0.059827243	0.84970491	0.03496883	0.10644467	1.3480748	0.10600184	-0.05903514	0.72019085	0.082837919	0.1258029	1.3577824	0.12290481	0.02561791	0.75045006	0.10347146	0.041510634	1.3065255	0.045130218	-0.0015116694	0.66648662	0.075328208	0.06281599	1.2250525	0.44934812	-0.057567517	0.89436257	0.43572932	0.16970423	1.2129436	0.43720609	0.067413584	0.8745298	0.4382559	0.038097698	1.0588716	0.79829786	-0.10557365	0.97675988	0.79044631	0.23088469	1.1160863	0.84981659	-0.049162036	1.0849539	0.84388061	0.19819155	0.91323268	0.91611833	0.051893676	1.0127661	1.3270921	-0.11309107	1.0240613	1.3206072	0.24476128	0.94331896	1.3587691	0.069273349	0.89364746	1.0473988	-0.18690902	1.0694835	1.008024	0.34225775	0.9570115	0.81865973	-0.24838942	1.3124762	0.99755789	0.27755662
357	1.424	1.4843146	0.13370669	-0.058400268	0.84976547	0.034947372	0.1064601	1.3586372	0.10625	-0.057509647	0.72068405	0.083794869	0.12600978	1.3682821	0.12331266	0.027185604	0.75111746	0.10416632	0.041820497	1.3178386	0.044856453	0.00075865827	0.66692266	0.076846828	0.063309641	1.2328361	0.44852678	-0.056896698	0.89860209	0.43493942	0.17000023	1.2206409	0.43651176	0.068180636	0.87926636	0.4374557	0.038389281	1.0663969	0.79653674	-0.10550859	0.98279484	0.78899221	0.23060856	1.1234479	0.84798265	-0.049077096	1.0913888	0.8423221	0.19820256	0.9204118	0.91449492	0.051749874	1.0193652	1.3252082	-0.11334713	1.0302969	1.3189549	0.24470722	0.94971683	1.3571733	0.069109074	0.8988791	1.0462469	-0.18645331	1.0774754	1.0066477	0.34228328	0.9594365	0.81716531	-0.24923298	1.320332	0.99896587	0.27653081
358	1.428	1.4943281	0.13437428	-0.056747501	0.84983405	0.034929533	0.10648521	1.3687814	0.10615024	-0.055913501	0.72128654	0.084805742	0.12638066	1.3781415	0.12344181	0.028726913	0.75182993	0.10494633	0.042284103	1.328378	0.044489884	0.0024755528	0.66740469	0.078451091	0.063936915	1.2406203	0.44767234	-0.056193248	0.9029859	0.43415422	0.17029533	1.2284545	0.43589512	0.068912964	0.88409546	0.43662626	0.03870441	1.0738724	0.79491201	-0.1054879	0.98889395	0.78758643	0.23034874	1.1308076	0.84617257	-0.048988769	1.0979162	0.84075189	0.19826373	0.92761488	0.91286852	0.051855765	1.025976	1.3233453	-0.11361915	1.0365574	1.3173054	0.24463891	0.95615437	1.3555881	0.068897042	0.9041786	1.0450718	-0.18600088	1.0854534	1.0052835	0.34231574	0.96201095	0.81570203	-0.25007048	1.3280936	1.0002502	0.27552986
359	1.432	1.5039813	0.13460316	-0.054844011	0.84991522	0.034918459	0.10651676	1.3785186	0.10567283	-0.054204744	0.72201661	0.085863783	0.12690204	1.3873346	0.12328779	0.030218695	0.75258781	0.10580734	0.042863562	1.3381654	0.043965476	0.0037442887	0.66791604	0.080159411	0.06471794	1.2484276	0.44676504	-0.055447118	0.90754614	0.43335279	0.17059249	1.2363406	0.43536231	0.069616671	0.88904015	0.43576216	0.039018995	1.081277	0.79341859	-0.10552602	0.99503527	0.78621469	0.2300828	1.1381285	0.84439277	-0.048873694	1.1045284	0.83919879	0.19834491	0.93475815	0.91126448	0.051753467	1.0325972	1.3215107	-0.11391008	1.0428479	1.3156669	0.24455485	0.9626209	1.3539901	0.068640048	0.90953798	1.0438872	-0.18554529	1.0933749	1.0039187	0.34232566	0.9647357	0.8142812	-0.25089671	1.335754	1.0014191	0.27453158
360	1.436	1.5131982	0.13443167	-0.052644052	0.85001291	0.034918654	0.10655266	1.3878304	0.10489105	-0.052420112	0.72284195	0.086975561	0.12751809	1.3958844	0.12282919	0.031682312	0.7533912	0.10672798	0.043470798	1.3472527	0.043222504	0.0047636757	0.66847088	0.081972412	0.065577634	1.2562928	0.44580829	-0.054666802	0.91224085	0.43252062	0.17090923	1.2442727	0.43490368	0.070295259	0.89412245	0.43486415	0.039311961	1.0886005	0.79203586	-0.10562173	1.0012142	0.78486061	0.22979705	1.1454176	0.84264741	-0.048744778	1.1111973	0.83766789	0.19843062	0.94198023	0.90969113	0.051390502	1.0392227	1.3197089	-0.11421941	1.0491712	1.3140456	0.24445095	0.96908943	1.3523815	0.068345631	0.91495253	1.0426978	-0.18508138	1.1012195	1.0025498	0.34229868	0.96760135	0.81291743	-0.25170277	1.3433068	1.0024833	0.27352536
361	1.44	1.5218935	0.13396311	-0.050151542	0.85012887	0.034932946	0.10659478	1.3966744	0.10396177	-0.050680019	0.72373317	0.088149322	0.12818918	1.4038346	0.12202379	0.033178493	0.7542483	0.1076979	0.044064762	1.3556782	0.042247634	0.0056547597	0.66909216	0.083890571	0.066459468	1.2642319	0.44482703	-0.053864836	0.91703547	0.4316528	0.17125813	1.2522374	0.43449352	0.070955937	0.89934269	0.43393799	0.039583729	1.0958506	0.79074435	-0.1057712	1.0074519	0.78351456	0.2294985	1.152711	0.84094065	-0.048633083	1.1179023	0.83615488	0.19851633	0.94937658	0.9081439	0.050952	1.045848	1.3179447	-0.11454111	1.0555263	1.312447	0.2443205	0.97552341	1.3508071	0.068003031	0.92042426	1.0415056	-0.1846118	1.1089883	1.0011844	0.3422383	0.970596	0.81161812	-0.25247536	1.3507604	1.0034433	0.27253096
